<?xml version="1.0" encoding="UTF-8"?>
<svg xmlns="http://www.w3.org/2000/svg" xmlns:xlink="http://www.w3.org/1999/xlink" width="97px" height="35px" viewBox="0 0 97 35" version="1.1">
  <title>未命名16</title>
  <g id="页面-1" stroke="none" stroke-width="1" fill="none" fill-rule="evenodd">
    <g id="多边形-1295-拷贝-4@2x" transform="translate(-1.749, 0.2481)" fill-rule="nonzero">
      <path d="M2.23038536,4.96277914e-07 C33.9977908,4.96277914e-07 65.7651963,4.96277914e-07 97.6469935,0.116286849 C97.7589164,4.78000174 97.8463042,9.32968238 97.732367,13.8743166 C97.5718203,20.2780831 94.1023578,25.5568251 86.891039,27.0541382 C76.7603313,29.1576174 66.6663055,31.4378596 56.5576871,33.6475199 C52.976063,34.4304395 49.5190841,35.1504385 45.7113196,34.2280127 C35.259102,31.6959851 24.7459687,29.3786521 14.1881767,27.3309017 C5.85013176,25.7136859 2.11610323,20.2171935 2.22699702,12.6498859 C2.28877593,8.43414566 2.23311911,4.21668536 2.23038536,4.96277914e-07 Z" id="路径" fill="#FFFFFF"></path>
      <path d="M2.10853697,0 C2.23311911,4.21668536 2.28877593,8.43414566 2.22699702,12.6498859 C2.11610323,20.2171935 5.85013176,25.7136859 14.1881767,27.3309017 C24.7459687,29.3786521 35.259102,31.6959851 45.7113196,34.2280127 C49.5190841,35.1504385 52.976063,34.4304395 56.5576871,33.6475199 C66.6663055,31.4378596 76.7603313,29.1576174 86.891039,27.0541382 C94.1023578,25.5568251 97.5718203,20.2780831 97.732367,13.8743166 C97.8463042,9.32968238 97.7589164,4.78000174 97.7626422,0.116286849 C98.5078087,0 99.2517258,0 99.9963926,0 C99.9963926,12.5635109 99.9963926,25.1270213 99.9963926,37.7017042 C66.6637988,37.7017042 33.3304667,37.7017042 0,37.7017042 C0,25.1241911 0,12.5620948 0.0014325062,0 C0.664139702,0 1.32541439,0 2.10853697,0 Z" id="路径"></path>
    </g>
  </g>
</svg>
